PathFileType	4	(X/Y/Z)	D:\TRACE\v60_Jaco2_6-2-23\BothDRS_Motion2_10-platform.trc
DataRate	CameraRate	NumFrames	NumMarkers	Units	OrigDataRate	OrigDataStartFrame	OrigNumFrames
100.00	100.00	      23	5	mm	100.00	4688	      7500
Frame#	Time	Left_Front			Right_Front			Left_Aft			Right_Aft			Post			
		X1	Y1	Z1	X2	Y2	Z2	X3	Y3	Z3	X4	Y4	Z4	X5	Y5	Z5	

4688	46.870	-842.58710	-52.16047	-650.44348	727.12250	-50.69755	-656.04645	-750.66663	48.70380	480.32635	691.43976	49.85586	489.08838	-56.91231	1212.26038	-1095.97205	
4689	46.880	-842.11426	-52.42371	-650.48816	727.40118	-50.67203	-656.13507	-750.25140	48.88637	480.31552	691.11462	49.03472	488.79233	-56.32249	1211.75452	-1096.98755	
4690	46.890	-841.55066	-52.66349	-650.55389	727.95026	-50.98541	-656.04236	-749.70209	49.06552	480.17703	691.85437	49.47182	489.00528	-55.42380	1211.39941	-1098.05383	
4691	46.900	-841.04681	-52.70173	-650.64569	728.65814	-51.31561	-655.99390	-748.80939	49.21912	480.26855	692.81439	49.84923	489.09772	-55.10803	1211.02356	-1099.01208	
4692	46.910	-840.54993	-53.05009	-650.69983	729.56158	-51.16749	-655.98889	-748.35162	49.46758	480.20441	693.75690	50.23671	489.09860	-54.67682	1210.86731	-1100.52759	
4693	46.920	-839.86511	-53.16316	-650.37439	730.25110	-51.10622	-656.06348	-747.70880	49.61959	480.21011	694.40619	50.16151	489.14011	-54.31035	1210.59814	-1101.63672	
4694	46.930	-838.99664	-53.31752	-650.41638	730.90198	-51.32058	-656.19794	-746.87036	49.26628	480.04602	694.93396	49.95681	489.16492	-52.92313	1210.40881	-1102.39746	
4695	46.940	-838.13263	-53.06765	-650.54712	731.59650	-51.39912	-656.08112	-746.11548	49.29247	480.17999	695.58447	49.91664	489.34885	-52.07249	1210.19360	-1103.43982	
4696	46.950	-837.49036	-52.91680	-650.47858	732.38550	-51.33211	-656.01025	-745.57080	49.44571	480.09155	696.94312	50.40170	489.49344	-51.63508	1210.35913	-1104.51636	
4697	46.960	-836.89972	-52.92595	-650.56366	733.17633	-51.05367	-656.06531	-744.80994	49.56095	480.15350	697.63708	50.40535	489.50119	-50.80259	1210.37573	-1105.46301	
4698	46.970	-836.12408	-52.78907	-650.53802	733.90369	-50.91497	-656.17719	-744.04749	49.37044	480.14435	698.28021	50.26244	489.44269	-50.25455	1210.54663	-1106.15955	
4699	46.980	-835.34802	-52.62103	-650.44971	734.46570	-50.86195	-656.20868	-743.27216	49.25115	480.17426	699.01392	50.03510	489.50943	-49.31843	1210.74243	-1107.33423	
4700	46.990	-834.45050	-52.55245	-650.51660	735.18481	-50.87221	-656.15881	-742.61945	49.07425	480.18741	699.87994	50.07793	489.87604	-48.63317	1210.66064	-1108.09033	
4701	47.000	-833.71350	-52.37457	-650.49445	736.28558	-50.74079	-655.99652	-741.72565	48.98124	480.10547	700.61963	49.92708	489.81305	-47.28183	1210.73376	-1109.02417	
4702	47.010	-833.01733	-52.21106	-650.59174	737.17798	-50.27276	-655.90948	-740.46570	48.74950	480.37967	702.00952	50.08980	490.26596	-46.48439	1211.15930	-1109.45129	
4703	47.020	-831.89709	-51.73091	-650.61127	737.82867	-49.91187	-655.97211	-739.79242	48.46159	480.49689	702.32001	49.79620	490.81799	-45.81142	1211.46716	-1110.56873	
4704	47.030	-831.18341	-51.62454	-650.53937	738.57452	-49.93085	-656.12744	-739.11475	48.54820	480.45538	702.67358	49.36315	489.17923	-45.00383	1211.66211	-1111.24182	
4705	47.040	-830.41626	-51.53014	-650.26166	739.47418	-49.79366	-655.99036	-737.65710	47.45480	480.81702	703.81628	49.17727	489.34842	-43.77713	1211.82373	-1111.96228	
4706	47.050	-829.37030	-51.14901	-650.25317	740.67255	-49.13663	-655.63416	-737.49640	48.17978	480.50497	704.49115	49.11615	489.50641	-43.19916	1212.38562	-1112.34119	
4707	47.060	-828.63934	-50.82230	-650.26160	741.42847	-48.70249	-655.79218	-736.43738	47.79675	480.63879	705.23712	48.63589	489.40430	-42.00785	1213.10620	-1113.05957	
4708	47.070	-827.58582	-50.34167	-650.29047	742.39111	-48.39586	-655.82825	-735.38116	47.56343	480.67981	706.61316	48.39526	489.62930	-40.81171	1213.71619	-1113.50867	
4709	47.080	-826.76489	-49.82714	-650.07910	743.72235	-47.77999	-655.36194	-734.73737	47.27528	480.81339	708.12714	48.70303	490.73550	-40.01517	1214.27454	-1114.32056	
4710	47.090	-825.92316	-49.35952	-649.98749	744.61078	-46.87775	-655.37854	-733.87231	47.03045	480.93512	708.39142	47.76898	490.34396	-39.42561	1214.97192	-1114.52637	
